<?xml version="1.0" encoding="iso-8859-1"?>
<!-- Generator: Adobe Illustrator 19.0.0, SVG Export Plug-In . SVG Version: 6.00 Build 0)  -->
<svg version="1.1" id="Capa_1" xmlns="http://www.w3.org/2000/svg" xmlns:xlink="http://www.w3.org/1999/xlink" x="0px" y="0px"
	 viewBox="0 0 512 512" style="enable-background:new 0 0 512 512;" xml:space="preserve">
<g>
	<g>
		<path d="M445.982,391.5h-25.67v-22.417c6.772-3.392,13.038-7.872,18.553-13.382c5.084-5.084,9.336-10.856,12.677-17.186
			c29.481-20.653,47.005-54.188,47.005-90.266c0-29.159-11.605-55.577-32.677-74.387c-13.558-12.102-30.401-20.551-48.995-24.808
			c4.189-5.787,6.669-12.888,6.669-20.562c0-19.381-15.767-35.147-35.147-35.147s-35.147,15.768-35.147,35.147
			c0,7.674,2.479,14.776,6.669,20.562c-18.598,4.257-35.443,12.706-49.003,24.808c-21.072,18.809-32.679,45.228-32.679,74.388
			c0,36.074,17.526,69.609,47.014,90.265c7.042,13.322,18.101,23.888,31.231,30.479V391.5h-25.67
			c-22.624,0-42.622,11.445-54.522,28.844c-12.269-24.819-37.844-41.935-67.353-41.935h-32.919v-23.903
			c25.645-11.857,44.113-36.674,46.93-66.009c18.436-1.506,32.982-16.976,32.982-35.789c0-9.588-3.734-18.61-10.527-25.418
			c-1.856-1.852-3.884-3.469-6.04-4.853c2.94-4.71,4.641-10.257,4.641-16.161c0-9.728-4.602-18.668-12.053-24.357
			c0.19-1.382,0.287-2.778,0.287-4.174c0-16.895-13.745-30.64-30.641-30.64c-5.326,0-10.541,1.417-15.124,4.015
			c-5.329-3.489-11.02-6.34-17.006-8.482c-8.779-3.158-18.015-4.76-27.452-4.76c-15.721,0-30.691,4.395-43.729,12.755
			c-4.357-2.303-9.237-3.529-14.288-3.529c-16.894,0-30.64,13.745-30.64,30.64c0,1.396,0.097,2.792,0.287,4.174
			c-7.451,5.689-12.054,14.63-12.054,24.358c0,5.614,1.544,10.909,4.231,15.468c-10.6,6.254-17.732,17.788-17.732,30.963
			c0,9.589,3.74,18.61,10.522,25.392c6.077,6.09,13.965,9.715,22.46,10.4c1.781,18.768,9.943,36.178,23.44,49.675
			c6.917,6.912,14.866,12.413,23.49,16.386v23.848H75.093C33.687,378.408,0,412.094,0,453.501v28.803
			c0,5.545,4.496,10.039,10.039,10.039H273.99c0.143,0,0.281-0.015,0.422-0.021c0.141,0.006,0.279,0.021,0.422,0.021h227.127
			c5.544,0,10.039-4.495,10.039-10.039v-24.787C512,421.116,482.384,391.5,445.982,391.5z M60.696,268.203
			c-2.967-0.627-5.689-2.098-7.88-4.293c-2.997-2.998-4.648-6.976-4.648-11.203c0-7.602,5.378-13.971,12.528-15.502V268.203z
			 M235.851,252.709c0,7.592-5.374,13.955-12.519,15.489v-30.992c2.963,0.63,5.684,2.099,7.873,4.283
			C234.201,244.491,235.851,248.475,235.851,252.709z M193.846,170.573c0.012-0.013,0.026-0.024,0.039-0.037
			c0.023-0.024,0.042-0.051,0.065-0.075c2.023-2.112,4.734-3.278,7.646-3.278c5.824,0.001,10.562,4.739,10.562,10.562
			c0,1.637-0.357,3.195-1.065,4.63c-1.273,2.584-1.374,5.59-0.279,8.254c1.096,2.663,3.283,4.728,6.004,5.67
			c4.25,1.469,7.105,5.479,7.105,9.978c0,5.457-4.198,10.027-9.591,10.501h-1.04c-0.187,0-0.369,0.018-0.554,0.028
			c-5.53-0.328-9.937-4.925-9.937-10.529c0-1.62,0.362-3.183,1.077-4.645c1.263-2.582,1.358-5.582,0.262-8.239
			c-1.096-2.657-3.28-4.717-5.995-5.658c-4.253-1.472-7.11-5.486-7.11-9.99C191.035,175.07,192.04,172.523,193.846,170.573z
			 M72.233,216.838c-0.228,0-0.456-0.009-0.679-0.027c-0.034-0.003-0.067-0.005-0.101-0.008c-5.485-0.393-9.782-5.017-9.782-10.526
			c0-4.499,2.855-8.508,7.106-9.978c2.723-0.942,4.909-3.007,6.004-5.67c1.095-2.664,0.993-5.67-0.279-8.254
			c-0.707-1.435-1.065-2.992-1.065-4.63c0-5.824,4.737-10.561,10.561-10.561c2.746,0,5.345,1.047,7.317,2.95
			c0.004,0.004,0.008,0.007,0.012,0.011c2.085,2.005,3.234,4.703,3.234,7.601c0,4.505-2.856,8.518-7.107,9.989
			c-2.722,0.942-4.909,3.007-6.003,5.67c-1.095,2.663-0.993,5.67,0.279,8.254c0.707,1.434,1.065,2.988,1.065,4.619
			C82.794,212.1,78.057,216.838,72.233,216.838z M98.708,323.975c-11.564-11.563-17.932-26.943-17.932-43.308v-2.078v-42.894
			c12.749-3.708,22.096-15.49,22.096-29.419c0-1.409-0.093-2.8-0.279-4.171c7.447-5.691,12.046-14.632,12.046-24.361
			c0-4.158-0.863-8.254-2.476-12.03c9.066-5.09,19.23-7.757,29.853-7.757c7.113,0,14.063,1.203,20.673,3.58
			c3.627,1.298,7.108,2.946,10.423,4.906c-1.411,3.559-2.152,7.383-2.152,11.301c0,9.726,4.6,18.667,12.047,24.36
			c-0.188,1.373-0.281,2.765-0.281,4.172c0,13.332,8.594,24.719,20.53,28.913v43.4v2.078c0,33.768-27.471,61.239-61.239,61.239
			C125.66,341.906,110.279,335.537,98.708,323.975z M155.939,361.985v16.424H128.08v-16.424H155.939z M263.951,472.265H20.078
			v-18.763c0-30.336,24.679-55.015,55.015-55.015h133.843c30.336,0,55.015,24.679,55.015,55.015V472.265z M388.397,113.424
			c8.308,0,15.069,6.759,15.069,15.069c0,8.308-6.759,15.069-15.069,15.069c-8.31,0-15.069-6.759-15.069-15.069
			S380.089,113.424,388.397,113.424z M325.456,218.664c-5.52,10.308-8.437,21.952-8.437,33.673v50.873
			c-11.978-15.541-18.704-34.763-18.704-54.959c0-47.683,37.884-82.292,90.081-82.292c52.191,0,90.072,34.608,90.072,82.292
			c0,20.202-6.725,39.427-18.703,54.968v-50.882c0-2.688-0.157-5.429-0.465-8.149c-0.507-4.469-3.922-8.053-8.361-8.777
			c-10.984-1.791-20.582-8.323-26.333-17.92c-1.814-3.027-5.083-4.879-8.612-4.879c-3.529,0-6.798,1.852-8.612,4.879
			c-6.909,11.529-19.047,18.412-32.469,18.412c-13.127,0-25.125-6.661-32.094-17.818c-1.898-3.038-5.24-4.825-8.85-4.715
			C330.392,213.488,327.146,215.506,325.456,218.664z M342.102,327.352c-3.322-6.919-5.005-14.361-5.005-22.119v-52.897
			c0-3.229,0.308-6.447,0.91-9.608c10.216,8.48,23.156,13.252,36.908,13.252c15.501,0,30.3-6.333,41.056-17.105
			c6.601,6.663,14.726,11.628,23.716,14.449v51.908c0,7.754-1.683,15.199-4.999,22.128c-2.519,5.254-5.89,10.012-10.017,14.138
			c-9.697,9.688-22.579,15.023-36.275,15.023C368.763,356.523,350.593,345.075,342.102,327.352z M400.233,376.602V391.5h-23.672
			v-14.898H400.233z M491.922,472.265H284.873v-14.748c0-25.331,20.608-45.939,45.939-45.939h115.17
			c25.331,0,45.939,20.608,45.939,45.939V472.265z"/>
	</g>
</g>
<g>
	<g>
		<path d="M272.385,19.657c-5.774,0-11.332,1.312-16.384,3.835c-5.052-2.524-10.61-3.835-16.384-3.835
			c-20.289,0-36.795,16.505-36.795,36.794c0,28.629,29.902,45.58,42.671,52.818c1.55,0.878,3.467,1.965,4.089,2.397
			c1.859,1.546,4.138,2.319,6.418,2.319s4.559-0.773,6.418-2.319c0.622-0.433,2.539-1.519,4.089-2.397
			c12.769-7.238,42.671-24.19,42.671-52.818C309.178,36.163,292.673,19.657,272.385,19.657z M256.604,91.802
			c-0.207,0.117-0.408,0.231-0.605,0.343c-0.197-0.111-0.398-0.226-0.605-0.343c-10.547-5.979-32.494-18.42-32.494-35.351
			c0-9.217,7.498-16.715,16.714-16.715c3.74,0,7.279,1.211,10.24,3.502c3.619,2.8,8.673,2.8,12.29,0
			c2.961-2.291,6.501-3.502,10.24-3.502c9.217,0,16.714,7.498,16.714,16.715C289.098,73.382,267.152,85.823,256.604,91.802z"/>
	</g>
</g>
<g>
	<g>
		<path d="M440.671,441.726h-56.22c-5.544,0-10.039,4.495-10.039,10.039c0,5.545,4.496,10.039,10.039,10.039h56.22
			c5.544,0,10.039-4.495,10.039-10.039C450.711,446.221,446.216,441.726,440.671,441.726z"/>
	</g>
</g>
<g>
	<g>
		<path d="M472.797,441.726c-12.919,0-12.942,20.078,0,20.078C485.716,461.804,485.737,441.726,472.797,441.726z"/>
	</g>
</g>
<g>
</g>
<g>
</g>
<g>
</g>
<g>
</g>
<g>
</g>
<g>
</g>
<g>
</g>
<g>
</g>
<g>
</g>
<g>
</g>
<g>
</g>
<g>
</g>
<g>
</g>
<g>
</g>
<g>
</g>
</svg>
