<?xml version="1.0" encoding="iso-8859-1"?>
<!-- Generator: Adobe Illustrator 19.0.0, SVG Export Plug-In . SVG Version: 6.00 Build 0)  -->
<svg version="1.1" id="Capa_1" xmlns="http://www.w3.org/2000/svg" xmlns:xlink="http://www.w3.org/1999/xlink" x="0px" y="0px"
	 viewBox="0 0 512 512" style="enable-background:new 0 0 512 512;" xml:space="preserve">
<path style="fill:#FFABCD;" d="M272.826,484.312v-26.795c0-31.974,26.013-57.987,57.987-57.987h115.17
	c31.974,0,57.987,26.013,57.987,57.987v26.795H272.826z"/>
<path style="fill:#EFEFEF;" d="M331.94,333.368c-28.597-19.012-45.67-50.832-45.67-85.118c0-26.841,10.653-51.131,29.995-68.395
	c18.743-16.73,44.361-25.943,72.134-25.943c27.768,0,53.384,9.213,72.125,25.943c19.343,17.265,29.994,41.555,29.994,68.395
	c0,34.29-17.07,66.11-45.66,85.118l-6.071,4.036l3.148-6.575c3.839-8.02,5.787-16.632,5.787-25.596v-52.897
	c0-1.749-0.08-3.529-0.238-5.309c-12.818-2.498-24.083-9.912-31.487-20.669c-9.252,13.392-24.711,21.59-41.078,21.59
	c-16.134,0-30.972-7.626-40.35-20.568c-3.606,7.785-5.499,16.345-5.499,24.955v52.897c0,8.971,1.95,17.583,5.795,25.595l3.16,6.584
	L331.94,333.368z"/>
<path style="fill:#FBC8AD;" d="M388.397,368.57c-24.243,0-46.678-14.133-57.157-36.007c-4.107-8.557-6.19-17.753-6.19-27.331
	v-52.897c0-10.402,2.588-20.735,7.486-29.881l1.636-3.056l1.836,2.94c8.446,13.522,22.99,21.594,38.906,21.594
	c16.029,0,31.11-8.551,39.358-22.315l1.723-2.874l1.723,2.874c6.968,11.63,18.607,19.547,31.931,21.719l1.501,0.245l0.172,1.511
	c0.274,2.42,0.414,4.858,0.414,7.244v52.897c0,9.569-2.079,18.764-6.18,27.331c-3.109,6.487-7.269,12.361-12.367,17.459
	C421.213,361.984,405.308,368.57,388.397,368.57z"/>
<rect x="364.514" y="364.555" style="fill:#E0B39B;" width="47.767" height="38.992"/>
<path style="fill:#EFEFEF;" d="M388.397,155.608c-14.952,0-27.116-12.165-27.116-27.116c0-14.952,12.164-27.116,27.116-27.116
	s27.116,12.165,27.116,27.116C415.513,143.444,403.349,155.608,388.397,155.608z"/>
<path style="fill:#FF4F4F;" d="M254.68,105.459c-0.702-0.612-2.798-1.801-5.225-3.177c-12.529-7.103-38.6-21.881-38.6-45.831
	c0-15.86,12.903-28.762,28.761-28.762c5.922,0,11.555,1.766,16.384,5.12c4.83-3.354,10.462-5.12,16.384-5.12
	c15.859,0,28.761,12.902,28.761,28.762c0,23.95-26.071,38.729-38.6,45.831c-2.427,1.376-4.524,2.564-5.225,3.177l-1.32,1.151
	L254.68,105.459z"/>
<path style="fill:#30C9B0;" d="M8.031,484.312v-30.81c0-36.977,30.084-67.062,67.062-67.062h133.843
	c36.978,0,67.062,30.084,67.062,67.062v30.81L8.031,484.312L8.031,484.312z"/>
<path style="fill:#E0B39B;" d="M211.285,280.597v-55.728h2.008c0.506,0,0.933-0.018,1.359-0.053l0.083-0.007h5.263
	c7.446,0,14.452,2.9,19.73,8.166c5.269,5.28,8.169,12.287,8.169,19.733c0,15.378-12.516,27.889-27.899,27.889L211.285,280.597
	L211.285,280.597z"/>
<path style="fill:#EFEFEF;" d="M213.286,228.885c-12.424-0.044-22.531-10.186-22.531-22.608c0-2.749,0.485-5.417,1.447-7.96
	c-7.984-3.648-13.213-11.664-13.213-20.572c0-5.791,2.191-11.303,6.169-15.523c4.329-4.571,10.166-7.086,16.439-7.086
	c12.467,0,22.609,10.143,22.609,22.608c0,2.766-0.484,5.438-1.444,7.97c7.981,3.645,13.209,11.656,13.209,20.561
	c0,11.719-9.052,21.542-20.671,22.517v0.038L213.286,228.885z"/>
<path style="fill:#FBC8AD;" d="M142.015,353.953c-19.572,0-37.978-7.621-51.826-21.459c-13.838-13.839-21.46-32.245-21.46-51.827
	v-56.029l2.171,0.178c0.439,0.036,0.885,0.053,1.332,0.053c10.252,0,18.593-8.341,18.593-18.593c0-2.872-0.636-5.621-1.891-8.168
	l-1.006-2.041l2.151-0.744c7.484-2.588,12.513-9.653,12.513-17.579c0-5.102-2.024-9.857-5.698-13.39l-1.673-1.608l1.83-1.425
	c12.959-10.082,28.507-15.412,44.964-15.412c8.507,0,16.829,1.442,24.734,4.286c7.634,2.731,14.744,6.714,21.128,11.838l1.696,1.36
	l-1.492,1.582c-3.273,3.472-5.075,8.005-5.075,12.768c0,7.923,5.029,14.988,12.513,17.579l2.143,0.742l-0.996,2.037
	c-1.257,2.57-1.894,5.32-1.894,8.174c0,10.216,8.312,18.556,18.529,18.593l2.001,0.007v55.79
	C215.301,321.077,182.425,353.953,142.015,353.953z"/>
<rect x="116.033" y="349.937" style="fill:#E0B39B;" width="51.953" height="40.518"/>
<path style="fill:#EFEFEF;" d="M72.232,228.885c-0.557,0-1.115-0.022-1.659-0.067c-11.738-0.839-20.949-10.741-20.949-22.541
	c0-8.906,5.227-16.917,13.21-20.561c-0.959-2.532-1.444-5.204-1.444-7.97c0-12.466,10.143-22.608,22.608-22.608
	c5.882,0,11.451,2.247,15.68,6.326c4.466,4.295,6.928,10.078,6.928,16.283c0,8.911-5.227,16.925-13.21,20.571
	c0.959,2.531,1.444,5.199,1.444,7.961C94.84,218.743,84.698,228.885,72.232,228.885z"/>
<path style="fill:#E0B39B;" d="M64.02,280.597c-7.461,0-14.466-2.901-19.723-8.169c-5.272-5.272-8.176-12.276-8.176-19.72
	c0-15.383,12.515-27.899,27.898-27.899h8.724v55.788H64.02z"/>
<path d="M445.982,391.5h-25.67v-22.417c6.772-3.392,13.038-7.872,18.553-13.382c5.084-5.084,9.336-10.856,12.677-17.186
	c29.481-20.653,47.005-54.188,47.005-90.266c0-29.159-11.605-55.577-32.677-74.387c-13.558-12.102-30.401-20.551-48.995-24.808
	c4.189-5.787,6.669-12.888,6.669-20.562c0-19.381-15.767-35.147-35.147-35.147c-19.381,0-35.147,15.768-35.147,35.147
	c0,7.674,2.479,14.776,6.669,20.562c-18.598,4.257-35.443,12.706-49.003,24.808c-21.072,18.809-32.679,45.228-32.679,74.388
	c0,36.074,17.526,69.609,47.014,90.265c7.042,13.322,18.101,23.888,31.231,30.479V391.5h-25.67
	c-22.624,0-42.621,11.445-54.522,28.844c-12.269-24.819-37.844-41.935-67.353-41.935h-32.919v-23.903
	c25.645-11.857,44.113-36.674,46.93-66.009c18.436-1.506,32.982-16.976,32.982-35.789c0-9.588-3.734-18.61-10.527-25.418
	c-1.856-1.852-3.884-3.469-6.04-4.853c2.94-4.71,4.641-10.257,4.641-16.161c0-9.728-4.602-18.668-12.053-24.357
	c0.19-1.382,0.287-2.778,0.287-4.174c0-16.895-13.745-30.64-30.641-30.64c-5.326,0-10.541,1.417-15.124,4.015
	c-5.329-3.489-11.02-6.34-17.006-8.482c-8.779-3.158-18.015-4.76-27.452-4.76c-15.721,0-30.691,4.395-43.729,12.755
	c-4.357-2.303-9.237-3.529-14.288-3.529c-16.894,0-30.64,13.745-30.64,30.64c0,1.396,0.097,2.792,0.287,4.174
	c-7.451,5.689-12.054,14.63-12.054,24.358c0,5.614,1.544,10.909,4.231,15.468c-10.6,6.254-17.732,17.788-17.732,30.963
	c0,9.588,3.74,18.61,10.522,25.392c6.077,6.09,13.965,9.715,22.46,10.4c1.781,18.768,9.943,36.178,23.44,49.675
	c6.917,6.912,14.866,12.413,23.49,16.386v23.848H75.093C33.687,378.408,0,412.094,0,453.501v28.803
	c0,5.545,4.496,10.039,10.039,10.039H273.99c0.143,0,0.281-0.015,0.422-0.021c0.141,0.006,0.279,0.021,0.422,0.021h227.127
	c5.544,0,10.039-4.495,10.039-10.039v-24.787C512,421.116,482.384,391.5,445.982,391.5z M223.332,268.197v-30.992
	c2.963,0.63,5.684,2.099,7.873,4.283c2.996,3.003,4.646,6.987,4.646,11.221C235.851,260.3,230.477,266.663,223.332,268.197z
	 M212.159,177.745c0,1.637-0.357,3.195-1.065,4.63c-1.273,2.584-1.374,5.59-0.279,8.254c1.096,2.663,3.283,4.728,6.004,5.67
	c4.25,1.469,7.105,5.479,7.105,9.978c0,5.457-4.198,10.027-9.591,10.501h-1.04c-0.187,0-0.369,0.018-0.554,0.028
	c-5.53-0.328-9.937-4.925-9.937-10.529c0-1.62,0.362-3.183,1.077-4.645c1.263-2.582,1.358-5.582,0.262-8.239
	c-1.096-2.657-3.28-4.717-5.995-5.658c-4.253-1.472-7.11-5.486-7.11-9.99c0-2.674,1.005-5.221,2.811-7.172
	c0.012-0.013,0.026-0.024,0.039-0.037c0.023-0.024,0.042-0.051,0.065-0.075c2.023-2.112,4.734-3.278,7.646-3.278
	C207.42,167.184,212.159,171.921,212.159,177.745z M68.777,196.298c2.723-0.942,4.909-3.007,6.004-5.67
	c1.095-2.664,0.993-5.67-0.279-8.254c-0.707-1.435-1.065-2.992-1.065-4.63c0-5.824,4.738-10.561,10.561-10.561
	c2.746,0,5.345,1.047,7.317,2.95c0.004,0.004,0.008,0.007,0.012,0.011c2.085,2.005,3.234,4.703,3.234,7.601
	c0,4.505-2.856,8.518-7.107,9.989c-2.722,0.942-4.909,3.007-6.003,5.67c-1.095,2.663-0.993,5.67,0.279,8.254
	c0.707,1.434,1.065,2.988,1.065,4.619c0,5.824-4.738,10.561-10.561,10.561c-0.228,0-0.456-0.009-0.679-0.027
	c-0.034-0.003-0.067-0.005-0.101-0.008c-5.485-0.393-9.782-5.017-9.782-10.526C61.671,201.778,64.526,197.768,68.777,196.298z
	 M48.168,252.708c0-7.602,5.378-13.971,12.528-15.502v30.997c-2.967-0.627-5.689-2.098-7.88-4.293
	C49.82,260.913,48.168,256.934,48.168,252.708z M80.776,280.667v-2.078v-42.894c12.749-3.708,22.096-15.49,22.096-29.419
	c0-1.408-0.093-2.8-0.279-4.171c7.447-5.691,12.046-14.632,12.046-24.361c0-4.158-0.863-8.254-2.476-12.03
	c9.066-5.09,19.23-7.757,29.853-7.757c7.113,0,14.063,1.203,20.673,3.58c3.627,1.298,7.108,2.947,10.423,4.906
	c-1.412,3.559-2.152,7.383-2.152,11.301c0,9.726,4.6,18.667,12.047,24.36c-0.188,1.373-0.281,2.765-0.281,4.172
	c0,13.332,8.594,24.719,20.53,28.913v43.4v2.078c0,33.768-27.471,61.239-61.239,61.239c-16.356,0-31.737-6.369-43.308-17.931
	C87.143,312.412,80.776,297.032,80.776,280.667z M128.08,361.985h27.859v16.424H128.08V361.985z M263.951,472.265H20.078v-18.763
	c0-30.336,24.679-55.015,55.015-55.015h133.843c30.335,0,55.015,24.679,55.015,55.015V472.265z M388.397,113.424
	c8.308,0,15.069,6.759,15.069,15.069c0,8.308-6.759,15.069-15.069,15.069c-8.309,0-15.069-6.759-15.069-15.069
	S380.089,113.424,388.397,113.424z M298.315,248.25c0-47.683,37.884-82.291,90.081-82.291c52.191,0,90.072,34.608,90.072,82.291
	c0,20.202-6.725,39.427-18.703,54.968v-50.882c0-2.688-0.157-5.429-0.465-8.149c-0.507-4.468-3.922-8.053-8.361-8.777
	c-10.984-1.791-20.582-8.323-26.333-17.92c-1.814-3.027-5.083-4.879-8.612-4.879s-6.798,1.852-8.612,4.879
	c-6.909,11.529-19.047,18.412-32.469,18.412c-13.127,0-25.125-6.661-32.094-17.818c-1.898-3.038-5.239-4.825-8.85-4.715
	c-3.579,0.119-6.825,2.137-8.514,5.295c-5.52,10.308-8.437,21.952-8.437,33.673v50.873
	C305.042,287.668,298.315,268.446,298.315,248.25z M342.102,327.352c-3.322-6.919-5.005-14.361-5.005-22.119v-52.897
	c0-3.229,0.308-6.447,0.91-9.608c10.216,8.48,23.156,13.252,36.908,13.252c15.501,0,30.3-6.333,41.056-17.105
	c6.601,6.663,14.726,11.628,23.716,14.449v51.908c0,7.754-1.683,15.199-4.999,22.128c-2.519,5.254-5.89,10.012-10.017,14.138
	c-9.697,9.688-22.579,15.023-36.275,15.023C368.762,356.523,350.593,345.075,342.102,327.352z M376.561,376.602h23.672V391.5
	h-23.672V376.602z M491.922,472.265H284.873v-14.748c0-25.331,20.608-45.939,45.939-45.939h115.17
	c25.331,0,45.939,20.608,45.939,45.939V472.265z"/>
<path d="M202.822,56.451c0,28.629,29.902,45.58,42.671,52.818c1.55,0.878,3.467,1.965,4.089,2.397
	c1.859,1.546,4.138,2.319,6.418,2.319s4.559-0.773,6.418-2.319c0.622-0.433,2.539-1.519,4.089-2.397
	c12.769-7.238,42.671-24.189,42.671-52.818c0-20.288-16.504-36.794-36.793-36.794c-5.774,0-11.332,1.312-16.384,3.835
	c-5.052-2.524-10.61-3.835-16.384-3.835C219.328,19.657,202.822,36.163,202.822,56.451z M262.144,43.237
	c2.961-2.291,6.501-3.502,10.24-3.502c9.217,0,16.714,7.498,16.714,16.715c0,16.931-21.947,29.372-32.494,35.351
	c-0.207,0.117-0.408,0.231-0.605,0.343c-0.197-0.111-0.398-0.226-0.605-0.343c-10.547-5.979-32.494-18.42-32.494-35.351
	c0-9.217,7.498-16.715,16.714-16.715c3.74,0,7.279,1.211,10.24,3.502C253.473,46.037,258.527,46.037,262.144,43.237z"/>
<path d="M440.671,441.726h-56.22c-5.544,0-10.039,4.495-10.039,10.039s4.496,10.039,10.039,10.039h56.22
	c5.544,0,10.039-4.495,10.039-10.039S446.216,441.726,440.671,441.726z"/>
<path d="M472.797,461.804c12.919,0,12.941-20.078,0-20.078C459.877,441.726,459.855,461.804,472.797,461.804z"/>
<g>
</g>
<g>
</g>
<g>
</g>
<g>
</g>
<g>
</g>
<g>
</g>
<g>
</g>
<g>
</g>
<g>
</g>
<g>
</g>
<g>
</g>
<g>
</g>
<g>
</g>
<g>
</g>
<g>
</g>
</svg>
