<?xml version="1.0" standalone="no"?>
<!DOCTYPE svg PUBLIC "-//W3C//DTD SVG 20010904//EN"
 "http://www.w3.org/TR/2001/REC-SVG-20010904/DTD/svg10.dtd">
<svg version="1.0" xmlns="http://www.w3.org/2000/svg"
 width="700.000000pt" height="700.000000pt" viewBox="0 0 700.000000 700.000000"
 preserveAspectRatio="xMidYMid meet">
<metadata>
Created by potrace 1.11, written by Peter Selinger 2001-2013
</metadata>
<g transform="translate(0.000000,700.000000) scale(0.100000,-0.100000)"
fill="#000000" stroke="none">
<path d="M3156 6715 c-297 -76 -457 -395 -344 -685 74 -188 214 -326 513 -505
176 -106 174 -106 368 11 81 48 156 95 165 104 9 8 34 27 54 42 137 103 249
252 293 393 22 70 25 218 5 280 -56 181 -189 311 -367 360 -79 22 -203 16
-286 -13 l-59 -21 -51 20 c-70 27 -212 34 -291 14z"/>
<path d="M5280 5723 c-245 -20 -435 -216 -446 -459 -4 -93 12 -163 55 -245
l29 -56 -106 -32 c-158 -48 -281 -106 -409 -192 -92 -62 -120 -85 -218 -184
-203 -204 -334 -482 -371 -786 -9 -74 -9 -272 0 -339 5 -30 10 -68 12 -84 5
-35 42 -182 53 -211 81 -206 132 -303 223 -427 70 -95 196 -223 281 -287 39
-30 75 -70 111 -125 83 -128 208 -243 361 -332 16 -9 18 -26 19 -158 1 -95 -3
-150 -9 -153 -6 -2 -110 -5 -230 -7 -251 -4 -330 -16 -464 -73 -47 -20 -111
-54 -143 -75 -70 -46 -172 -141 -213 -197 -16 -22 -33 -41 -37 -41 -3 0 -21
26 -38 57 -64 113 -171 231 -284 313 -65 47 -210 124 -266 141 -55 17 -103 29
-130 34 -14 3 -36 8 -50 12 -14 3 -153 7 -310 9 -157 1 -287 3 -290 3 -4 1 -5
253 -1 311 1 9 29 31 64 49 296 162 497 442 562 785 9 44 16 81 18 82 1 1 20
5 42 8 43 7 127 36 135 47 3 3 16 10 29 14 41 12 153 135 185 200 99 202 53
438 -115 589 -47 43 -60 68 -39 81 15 9 41 110 44 168 5 111 -42 232 -122 311
-37 37 -39 42 -40 104 -5 286 -298 484 -566 382 l-59 -23 -46 24 c-25 13 -59
33 -76 44 -16 11 -32 19 -35 18 -3 0 -20 5 -38 13 -200 83 -456 100 -684 44
-84 -21 -194 -65 -276 -111 -48 -27 -54 -28 -80 -15 -68 34 -207 43 -286 16
-172 -56 -293 -220 -291 -393 0 -56 -2 -60 -47 -107 -112 -117 -145 -270 -92
-428 l25 -77 -23 -15 c-47 -30 -124 -118 -154 -175 -129 -245 -30 -550 218
-669 69 -33 104 -43 155 -45 13 -1 22 -4 21 -8 -10 -40 48 -253 96 -357 96
-208 298 -420 496 -521 19 -10 37 -20 40 -22 3 -3 5 -76 6 -164 l1 -159 -26
-1 c-14 0 -143 -2 -286 -4 -143 -1 -270 -5 -281 -8 -12 -3 -37 -8 -56 -11 -65
-10 -193 -55 -272 -96 -84 -43 -220 -144 -275 -205 -118 -131 -204 -288 -248
-453 -24 -91 -26 -116 -31 -378 -4 -264 -3 -284 16 -326 14 -32 30 -49 55 -61
33 -16 267 -17 3439 -15 l3404 3 31 25 c17 14 36 42 42 63 17 54 13 445 -6
545 -41 222 -160 413 -351 565 -57 45 -232 128 -296 141 -138 28 -184 33 -357
34 -107 1 -203 2 -214 2 -19 0 -20 6 -19 128 1 70 2 139 3 153 1 19 11 31 44
49 124 69 249 188 333 315 33 51 72 95 105 120 74 55 216 198 270 270 24 33
46 62 49 65 13 12 102 171 134 240 49 106 100 276 111 370 3 19 8 65 13 101
17 140 1 347 -38 501 -97 378 -353 689 -720 874 -48 24 -147 64 -219 87 l-130
43 21 35 c59 96 81 248 52 359 -51 191 -218 339 -404 357 -19 1 -39 4 -45 6
-5 1 -26 1 -45 0z"/>
</g>
</svg>
